<svg width="80" height="81" viewBox="0 0 80 81" fill="none" xmlns="http://www.w3.org/2000/svg">
<path d="M79.9944 40.9913C79.9944 61.199 65.0196 77.9052 45.5661 80.6162C43.7472 80.8685 41.8862 81.0002 39.9972 81.0002C37.8167 81.0002 35.6754 80.8264 33.5902 80.49C14.546 77.423 0 60.9046 0 40.9913C0 18.8939 17.9092 0.979492 40 0.979492C62.0908 0.979492 80 18.8939 80 40.9913H79.9944Z" fill="#0042BA"/>
<path d="M45.5655 33.1079V41.8241H56.3446L54.6378 53.5652H45.5655V80.6163C43.7465 80.8686 41.8855 81.0004 39.9965 81.0004C37.816 81.0004 35.6748 80.8266 33.5896 80.4902V53.5652H23.6484V41.8241H33.5896V31.1595C33.5896 24.5432 38.9511 19.1772 45.5683 19.1772V19.1829C45.5879 19.1829 45.6047 19.1772 45.6243 19.1772H56.3474V29.3316H49.3407C47.2583 29.3316 45.5683 31.0221 45.5683 33.1051L45.5655 33.1079Z" fill="#F5F6FA"/>
</svg>
