<svg width="48" height="48" viewBox="0 0 48 48" fill="none" xmlns="http://www.w3.org/2000/svg">
<path d="M28.344 42H14C10.228 42 8.344 42 7.172 40.828C6 39.656 6 37.772 6 34V14C6 10.228 6 8.344 7.172 7.172C8.344 6 10.228 6 14 6H34C37.772 6 39.656 6 40.828 7.172C42 8.344 42 10.228 42 14V28.344C42 29.16 42 29.57 41.848 29.938C41.696 30.304 41.408 30.594 40.828 31.172L31.172 40.828C30.592 41.408 30.304 41.696 29.938 41.848C29.57 42 29.16 42 28.344 42Z" stroke="#2D47F1" stroke-width="2"/>
<path d="M28 42V32.666C28 30.466 28 29.366 28.684 28.684C29.366 28 30.466 28 32.666 28H42" stroke="#2D47F1" stroke-width="2"/>
</svg>
