<svg width="80" height="81" viewBox="0 0 80 81" fill="none" xmlns="http://www.w3.org/2000/svg">
<path d="M40.0911 0.976562H39.9089C17.8679 0.976562 0 18.8496 0 40.8972V41.0795C0 63.127 17.8679 81.0001 39.9089 81.0001H40.0911C62.1321 81.0001 80 63.127 80 41.0795V40.8972C80 18.8496 62.1321 0.976562 40.0911 0.976562Z" fill="#0042BA"/>
<path d="M19.0779 27.5746C18.0241 26.5961 17.5 25.385 17.5 23.9439C17.5 22.5029 18.0269 21.2384 19.0779 20.2572C20.1318 19.2787 21.4883 18.7881 23.1504 18.7881C24.8124 18.7881 26.1158 19.2787 27.1668 20.2572C28.2207 21.2356 28.7447 22.4664 28.7447 23.9439C28.7447 25.4214 28.2179 26.5961 27.1668 27.5746C26.113 28.5531 24.776 29.0437 23.1504 29.0437C21.5248 29.0437 20.1318 28.5531 19.0779 27.5746ZM27.8591 33.1874V63.1861H18.3829V33.1874H27.8591Z" fill="#F5F6FA"/>
<path d="M59.4036 36.151C61.4693 38.3938 62.5007 41.4722 62.5007 45.3917V62.6563H53.501V46.6084C53.501 44.6319 52.9881 43.0955 51.9651 42.0021C50.9421 40.9087 49.5631 40.3592 47.8366 40.3592C46.1101 40.3592 44.731 40.9059 43.708 42.0021C42.685 43.0955 42.1721 44.6319 42.1721 46.6084V62.6563H33.1191V33.1034H42.1721V37.0229C43.0886 35.7164 44.3247 34.6847 45.8774 33.9249C47.4302 33.1651 49.1763 32.7866 51.1186 32.7866C54.5773 32.7866 57.3408 33.9081 59.4036 36.1481V36.151Z" fill="#F5F6FA"/>
</svg>
