<svg width="190" height="40" viewBox="0 0 190 40" fill="none" xmlns="http://www.w3.org/2000/svg">
<rect y="0.290413" width="39.4192" height="39.4192" rx="3.97504" fill="white"/>
<g clip-path="url(#clip0_3017_9898)">
<rect x="2.54297" y="2.8337" width="34.1739" height="34.1739" rx="2.65003" fill="#2D47F1"/>
<g clip-path="url(#clip1_3017_9898)">
<path d="M1.42969 37.6078C1.42969 37.6078 16.8675 33.1897 16.8675 28.7715C16.8675 24.3534 3.6351 22.4978 8.04591 15.8706C12.4567 9.24337 36.7162 11.4524 36.7162 11.4524V13.6615C36.7162 13.6615 14.6621 11.4524 14.6621 18.0796C14.6621 22.1443 41.127 24.7068 27.8946 37.9612L1.42969 37.6078Z" fill="white"/>
</g>
</g>
<path d="M50.1293 15.6021C50.1293 11.6336 53.3297 8.94528 58.0982 8.94528C62.5147 8.94528 65.3631 11.4096 65.6191 15.41H62.4507C62.2907 13.1058 60.6585 11.7616 58.0662 11.7616C55.1539 11.7616 53.2657 13.2338 53.2657 15.506C53.2657 17.3623 54.3218 18.4824 56.498 18.9944L60.3065 19.8905C64.0829 20.7546 66.0031 22.8029 66.0031 26.0673C66.0031 30.2277 62.7708 32.884 57.8422 32.884C53.1377 32.884 50.0013 30.4198 49.8093 26.4513H53.0096C53.0737 28.6596 54.9299 30.0677 57.8422 30.0677C60.9146 30.0677 62.8668 28.6276 62.8668 26.3233C62.8668 24.4991 61.8747 23.3469 59.6664 22.8349L55.858 21.9708C52.0815 21.1067 50.1293 18.9304 50.1293 15.6021ZM70.1239 13.1378C69.0358 13.1378 68.1396 12.2417 68.1396 11.1535C68.1396 10.0334 69.0358 9.16931 70.1239 9.16931C71.212 9.16931 72.1081 10.0334 72.1081 11.1535C72.1081 12.2417 71.212 13.1378 70.1239 13.1378ZM68.6517 32.5V16.8502H71.6601V32.5H68.6517ZM78.3193 32.5H75.311V8.94528H78.3193V32.5ZM85.0396 32.5H82.0313V8.94528H85.0396V24.211L91.9844 16.8502H95.7609L89.7762 23.0909L95.7289 32.5H92.2725L87.6959 25.2672L85.0396 28.0515V32.5ZM106.4 16.7222V19.4745H105.055C102.207 19.4745 100.447 21.2027 100.447 24.211V32.5H97.4386V16.8822H100.255L100.447 19.2505C101.087 17.6183 102.655 16.5302 104.799 16.5302C105.343 16.5302 105.792 16.5942 106.4 16.7222ZM106.854 24.6591C106.854 19.8265 110.31 16.4341 115.015 16.4341C119.687 16.4341 123.144 19.8265 123.144 24.6591C123.144 29.4917 119.687 32.884 115.015 32.884C110.31 32.884 106.854 29.4917 106.854 24.6591ZM109.894 24.6591C109.894 27.9235 111.975 30.1957 115.015 30.1957C118.023 30.1957 120.135 27.9235 120.135 24.6591C120.135 21.3947 118.023 19.1225 115.015 19.1225C111.975 19.1225 109.894 21.3947 109.894 24.6591ZM130.27 32.884C126.909 32.884 124.925 30.9958 124.925 28.1475C124.925 25.2672 127.069 23.475 130.75 23.1869L135.678 22.8029V22.3548C135.678 19.7305 134.11 18.8024 131.998 18.8024C129.47 18.8024 128.03 19.9226 128.03 21.8108H125.405C125.405 18.5464 128.094 16.4021 132.126 16.4021C135.999 16.4021 138.623 18.4504 138.623 22.6749V32.5H136.063L135.742 29.9717C134.942 31.7639 132.798 32.884 130.27 32.884ZM131.134 30.5478C133.982 30.5478 135.71 28.6916 135.71 25.7472V24.9151L131.71 25.2352C129.054 25.4912 127.966 26.5153 127.966 28.0515C127.966 29.7157 129.182 30.5478 131.134 30.5478ZM148.281 32.884C143.737 32.884 140.984 29.4917 140.984 24.7231C140.984 19.9226 143.769 16.4021 148.409 16.4021C150.81 16.4021 152.826 17.4583 153.882 19.3785V8.94528H156.858V32.5H154.17L153.914 29.6517C152.89 31.7959 150.777 32.884 148.281 32.884ZM148.889 30.1637C151.962 30.1637 153.85 27.8915 153.85 24.6271C153.85 21.4267 151.962 19.1225 148.889 19.1225C145.817 19.1225 144.025 21.4267 144.025 24.6271C144.025 27.8595 145.817 30.1637 148.889 30.1637ZM167.17 32.884C162.562 32.884 159.394 29.5557 159.394 24.6911C159.394 19.7945 162.498 16.4021 167.042 16.4021C171.491 16.4021 174.403 19.4745 174.403 24.115V25.2352L162.306 25.2672C162.53 28.5635 164.258 30.3878 167.234 30.3878C169.571 30.3878 171.107 29.4276 171.619 27.6354H174.435C173.667 30.9958 171.043 32.884 167.17 32.884ZM167.042 18.9304C164.418 18.9304 162.754 20.4986 162.37 23.2509H171.395C171.395 20.6586 169.699 18.9304 167.042 18.9304ZM177.989 32.5H174.533L180.005 24.7551L174.565 16.8502H178.053L182.022 22.6749L185.894 16.8502H189.318L183.878 24.7551L189.222 32.5H185.734L181.83 26.7713L177.989 32.5Z" fill="#1C1C1C"/>
<defs>
<clipPath id="clip0_3017_9898">
<rect x="2.54297" y="2.8337" width="34.1739" height="34.1739" rx="2.65003" fill="white"/>
</clipPath>
<clipPath id="clip1_3017_9898">
<rect width="35.2865" height="26.8623" fill="white" transform="translate(1.42969 11.0989)"/>
</clipPath>
</defs>
</svg>
