<svg width="80" height="81" viewBox="0 0 80 81" fill="none" xmlns="http://www.w3.org/2000/svg">
<path d="M79.9944 40.9908C79.9944 61.1985 65.0196 77.9047 45.5661 80.6157C43.7472 80.868 41.8862 80.9998 39.9972 80.9998C37.8167 80.9998 35.6754 80.826 33.5902 80.4896C14.546 77.4225 0 60.9042 0 40.9908C0 18.8935 17.9092 0.979004 40 0.979004C62.0908 0.979004 80 18.8935 80 40.9908H79.9944Z" fill="#0042BA"/>
<path d="M16.2223 18.627L34.6696 43.2979L16.1074 63.3571H20.2862L36.539 45.7958L49.6697 63.3571H63.8877L44.4034 37.2984L61.682 18.627H57.5032L42.5368 34.8004L30.4432 18.627H16.2251H16.2223ZM22.3658 21.7052H28.8961L57.7386 60.2788H51.2083L22.3658 21.7052Z" fill="#F5F6FA"/>
</svg>
