<svg width="28" height="26" viewBox="0 0 28 26" fill="none" xmlns="http://www.w3.org/2000/svg">
<path d="M14.055 0.299604C6.85069 0.299604 0.987621 5.94674 0.985081 12.8869C0.983387 15.1063 1.58629 17.2723 2.72944 19.1801L0.875 25.7028L7.80415 23.9526C9.7316 24.9608 11.8747 25.4867 14.05 25.4852H14.055C21.2594 25.4852 27.1225 19.8372 27.125 12.8971C27.1267 9.53537 25.7685 6.37098 23.3001 3.99239C20.8326 1.61295 17.5514 0.300451 14.055 0.299604ZM14.055 23.359H14.0508C12.1015 23.359 10.1895 22.8543 8.52137 21.9008L8.12339 21.6739L4.01315 22.712L5.11056 18.8507L4.8523 18.4553C3.7675 16.8008 3.19002 14.8653 3.19093 12.8869C3.19347 7.11783 8.0675 2.42585 14.0593 2.42585C16.9603 2.4267 19.6878 3.5165 21.7395 5.49372C23.7913 7.47094 24.92 10.1002 24.9183 12.8962C24.9158 18.6653 20.0426 23.359 14.0542 23.359H14.055ZM20.0138 15.5221C19.6869 15.3654 18.0815 14.6042 17.7817 14.4983C17.4828 14.3942 17.2652 14.34 17.0475 14.655C16.8308 14.97 16.2042 15.6787 16.0145 15.8879C15.8231 16.0979 15.6326 16.1233 15.3057 15.9666C14.9789 15.8091 13.9263 15.4772 12.6799 14.4052C11.7086 13.5719 11.0532 12.5423 10.8627 12.2264C10.6722 11.9123 10.8424 11.7421 11.0058 11.5854C11.1523 11.4457 11.3327 11.2188 11.4952 11.035C11.6578 10.8513 11.712 10.72 11.8221 10.51C11.9305 10.3009 11.8763 10.1163 11.7942 9.95961C11.712 9.80126 11.06 8.25336 10.7865 7.6242C10.5223 7.01114 10.253 7.09327 10.0523 7.08311C9.86182 7.07465 9.64504 7.07211 9.42573 7.07211C9.2098 7.07211 8.855 7.15086 8.55524 7.46586C8.25633 7.78086 7.4121 8.54126 7.4121 10.0892C7.4121 11.6379 8.58234 13.1333 8.74577 13.3433C8.90919 13.5525 11.049 16.7304 14.3252 18.0937C15.1042 18.4163 15.7122 18.6103 16.1872 18.7559C16.9696 18.9955 17.6818 18.9608 18.244 18.8804C18.8706 18.7898 20.1764 18.12 20.4473 17.3858C20.72 16.6517 20.72 16.0217 20.6387 15.8904C20.5591 15.7592 20.3406 15.6804 20.0138 15.5221Z" fill="#235852"/>
</svg>
